<svg width="955" height="1050" viewBox="0 0 955 1050" fill="none" xmlns="http://www.w3.org/2000/svg">
<circle cx="525" cy="273.764" r="50" transform="rotate(-180 525 273.764)" fill="currentColor"/>
<circle cx="671.946" cy="321.51" r="50" transform="rotate(-180 671.946 321.51)" fill="currentColor"/>
<circle cx="671.946" cy="726.019" r="50" transform="rotate(-180 671.946 726.019)" fill="currentColor"/>
<circle cx="525" cy="773.764" r="50" transform="rotate(-180 525 773.764)" fill="currentColor"/>
<circle cx="378.053" cy="726.019" r="50" transform="rotate(-180 378.053 726.019)" fill="currentColor"/>
<circle cx="287.236" cy="601.019" r="50" transform="rotate(-180 287.236 601.019)" fill="currentColor"/>
<circle cx="287.236" cy="446.51" r="50" transform="rotate(-180 287.236 446.51)" fill="currentColor"/>
<circle cx="378.053" cy="321.51" r="50" transform="rotate(-180 378.053 321.51)" fill="currentColor"/>
<circle cx="832.926" cy="747.859" r="37.5" fill="currentColor"/>
<circle cx="748.858" cy="831.927" r="37.5" fill="currentColor"/>
<circle cx="642.926" cy="885.901" r="37.5" fill="currentColor"/>
<circle cx="525.5" cy="904.5" r="37.5" fill="currentColor"/>
<circle cx="408.073" cy="885.901" r="37.5" fill="currentColor"/>
<circle cx="302.142" cy="831.927" r="37.5" fill="currentColor"/>
<circle cx="218.073" cy="747.859" r="37.5" fill="currentColor"/>
<circle cx="164.099" cy="641.927" r="37.5" fill="currentColor"/>
<circle cx="145.5" cy="524.5" r="37.5" fill="currentColor"/>
<circle cx="164.099" cy="407.074" r="37.5" fill="currentColor"/>
<circle cx="218.073" cy="301.142" r="37.5" fill="currentColor"/>
<circle cx="302.142" cy="217.074" r="37.5" fill="currentColor"/>
<circle cx="408.073" cy="163.099" r="37.5" fill="currentColor"/>
<circle cx="525.5" cy="144.5" r="37.5" fill="currentColor"/>
<circle cx="642.926" cy="163.099" r="37.5" fill="currentColor"/>
<circle cx="748.858" cy="217.074" r="37.5" fill="currentColor"/>
<circle cx="832.926" cy="301.142" r="37.5" fill="currentColor"/>
<circle opacity="0.64" cx="929.509" cy="818.893" r="25" fill="currentColor"/>
<circle opacity="0.64" cx="818.893" cy="929.508" r="25" fill="currentColor"/>
<circle opacity="0.64" cx="679.509" cy="1000.53" r="25" fill="currentColor"/>
<circle opacity="0.64" cx="525" cy="1025" r="25" fill="currentColor"/>
<circle opacity="0.64" cx="370.491" cy="1000.53" r="25" fill="currentColor"/>
<circle opacity="0.64" cx="231.107" cy="929.508" r="25" fill="currentColor"/>
<circle opacity="0.64" cx="120.492" cy="818.893" r="25" fill="currentColor"/>
<circle opacity="0.64" cx="49.4718" cy="679.508" r="25" fill="currentColor"/>
<circle opacity="0.64" cx="25" cy="525" r="25" fill="currentColor"/>
<circle opacity="0.64" cx="49.4718" cy="370.492" r="25" fill="currentColor"/>
<circle opacity="0.64" cx="120.492" cy="231.107" r="25" fill="currentColor"/>
<circle opacity="0.64" cx="231.107" cy="120.491" r="25" fill="currentColor"/>
<circle opacity="0.64" cx="370.491" cy="49.4717" r="25" fill="currentColor"/>
<circle opacity="0.64" cx="525" cy="25" r="25" fill="currentColor"/>
<circle opacity="0.64" cx="679.509" cy="49.4717" r="25" fill="currentColor"/>
<circle opacity="0.64" cx="818.893" cy="120.491" r="25" fill="currentColor"/>
<circle opacity="0.64" cx="929.509" cy="231.107" r="25" fill="currentColor"/>
</svg>
